# xmcd
#
# Track frame offsets:
# 150
# 16112
# 33119
# 53362
# 71665
# 86418
# 105500
# 122439
# 140518
# 158504
# 175662
# 192296
# 206252
# 225113
# 243743
# 257707
# 276795
# 296829
# 315702
#
# Disc length: 4499 seconds
#
#
# Revision: 2
# Processed by: cddbd v1.5.2PL0 Copyright (c) Steve Scherf et al.
# Submitted via: FreeRIP 2.96 
#
DISCID=f0119113
DTITLE=ROUPA NOVA - ROUPAcústico
DYEAR=2006
DGENRE=Acoustic
TTITLE0=Dona
TTITLE1=Ja nem sei mais
TTITLE2=A Força do amor
TTITLE3=Volta pra mim
TTITLE4=Anjo
TTITLE5=A Flor da pele
TTITLE6=Seguindo no trem azul
TTITLE7=Linda demais
TTITLE8=Sapato velho
TTITLE9=Bem simples
TTITLE10=Amar é...
TTITLE11=Chuva de Prata
TTITLE12=Whisky a Go Go
TTITLE13=A Viagem
TTITLE14=Roupa Nova
TTITLE15=A Lenda
TTITLE16=Coração Pirata
TTITLE17=Meu universo é você
TTITLE18=Razão de viver
EXTD=
EXTT0=
EXTT1=
EXTT2=
EXTT3=
EXTT4=
EXTT5=
EXTT6=
EXTT7=
EXTT8=
EXTT9=
EXTT10=
EXTT11=
EXTT12=
EXTT13=
EXTT14=
EXTT15=
EXTT16=
EXTT17=
EXTT18=
PLAYORDER=
